<svg width="160" height="48" viewBox="0 0 160 48" fill="none" xmlns="http://www.w3.org/2000/svg">
<rect width="160" height="48" rx="4" fill="#DB4128"/>
<path d="M33.7406 27.9187L24.8531 34.0687C24.604 34.246 24.3058 34.3412 24 34.3412C23.6942 34.3412 23.396 34.246 23.1469 34.0687L14.2594 27.9187C14.0052 27.7425 13.8114 27.4923 13.7041 27.2023C13.5968 26.9122 13.5812 26.5961 13.6594 26.2969L16.2188 16.6875C16.2787 16.4548 16.4116 16.2475 16.5979 16.0958C16.7842 15.9441 17.0142 15.8561 17.2542 15.8446C17.4942 15.833 17.7315 15.8986 17.9315 16.0318C18.1315 16.1649 18.2836 16.3585 18.3656 16.5844L20.2969 21.75H27.7031L29.6344 16.5844C29.7164 16.3585 29.8685 16.1649 30.0685 16.0318C30.2685 15.8986 30.5059 15.833 30.7458 15.8446C30.9858 15.8561 31.2158 15.9441 31.4021 16.0958C31.5884 16.2475 31.7213 16.4548 31.7813 16.6875L34.3406 26.2969C34.4188 26.5961 34.4032 26.9122 34.2959 27.2023C34.1886 27.4923 33.9948 27.7425 33.7406 27.9187Z" fill="white"/>
<path d="M53.1 16.0695C52.6133 16.0695 52.1733 15.9862 51.78 15.8195C51.3933 15.6528 51.0867 15.4128 50.86 15.0995C50.6333 14.7862 50.5167 14.4162 50.51 13.9895H52.01C52.03 14.2762 52.13 14.5028 52.31 14.6695C52.4967 14.8362 52.75 14.9195 53.07 14.9195C53.3967 14.9195 53.6533 14.8428 53.84 14.6895C54.0267 14.5295 54.12 14.3228 54.12 14.0695C54.12 13.8628 54.0567 13.6928 53.93 13.5595C53.8033 13.4262 53.6433 13.3228 53.45 13.2495C53.2633 13.1695 53.0033 13.0828 52.67 12.9895C52.2167 12.8562 51.8467 12.7262 51.56 12.5995C51.28 12.4662 51.0367 12.2695 50.83 12.0095C50.63 11.7428 50.53 11.3895 50.53 10.9495C50.53 10.5362 50.6333 10.1762 50.84 9.86951C51.0467 9.56284 51.3367 9.32951 51.71 9.16951C52.0833 9.00284 52.51 8.91951 52.99 8.91951C53.71 8.91951 54.2933 9.09618 54.74 9.44951C55.1933 9.79618 55.4433 10.2828 55.49 10.9095H53.95C53.9367 10.6695 53.8333 10.4728 53.64 10.3195C53.4533 10.1595 53.2033 10.0795 52.89 10.0795C52.6167 10.0795 52.3967 10.1495 52.23 10.2895C52.07 10.4295 51.99 10.6328 51.99 10.8995C51.99 11.0862 52.05 11.2428 52.17 11.3695C52.2967 11.4895 52.45 11.5895 52.63 11.6695C52.8167 11.7428 53.0767 11.8295 53.41 11.9295C53.8633 12.0628 54.2333 12.1962 54.52 12.3295C54.8067 12.4628 55.0533 12.6628 55.26 12.9295C55.4667 13.1962 55.57 13.5462 55.57 13.9795C55.57 14.3528 55.4733 14.6995 55.28 15.0195C55.0867 15.3395 54.8033 15.5962 54.43 15.7895C54.0567 15.9762 53.6133 16.0695 53.1 16.0695ZM60.0238 16.0695C59.3704 16.0695 58.7704 15.9162 58.2238 15.6095C57.6771 15.3028 57.2438 14.8795 56.9238 14.3395C56.6038 13.7928 56.4438 13.1762 56.4438 12.4895C56.4438 11.8095 56.6038 11.1995 56.9238 10.6595C57.2438 10.1128 57.6771 9.68618 58.2238 9.37951C58.7704 9.07284 59.3704 8.91951 60.0238 8.91951C60.6838 8.91951 61.2838 9.07284 61.8238 9.37951C62.3704 9.68618 62.8004 10.1128 63.1138 10.6595C63.4338 11.1995 63.5938 11.8095 63.5938 12.4895C63.5938 13.1762 63.4338 13.7928 63.1138 14.3395C62.8004 14.8795 62.3704 15.3028 61.8238 15.6095C61.2771 15.9162 60.6771 16.0695 60.0238 16.0695ZM60.0238 14.8195C60.4438 14.8195 60.8138 14.7262 61.1338 14.5395C61.4538 14.3462 61.7038 14.0728 61.8838 13.7195C62.0638 13.3662 62.1538 12.9562 62.1538 12.4895C62.1538 12.0228 62.0638 11.6162 61.8838 11.2695C61.7038 10.9162 61.4538 10.6462 61.1338 10.4595C60.8138 10.2728 60.4438 10.1795 60.0238 10.1795C59.6038 10.1795 59.2304 10.2728 58.9038 10.4595C58.5838 10.6462 58.3338 10.9162 58.1538 11.2695C57.9738 11.6162 57.8838 12.0228 57.8838 12.4895C57.8838 12.9562 57.9738 13.3662 58.1538 13.7195C58.3338 14.0728 58.5838 14.3462 58.9038 14.5395C59.2304 14.7262 59.6038 14.8195 60.0238 14.8195ZM66.0153 9.01951V13.3395C66.0153 13.8128 66.1386 14.1762 66.3853 14.4295C66.632 14.6762 66.9786 14.7995 67.4253 14.7995C67.8786 14.7995 68.2286 14.6762 68.4753 14.4295C68.722 14.1762 68.8453 13.8128 68.8453 13.3395V9.01951H70.2553V13.3295C70.2553 13.9228 70.1253 14.4262 69.8653 14.8395C69.612 15.2462 69.2686 15.5528 68.8353 15.7595C68.4086 15.9662 67.932 16.0695 67.4053 16.0695C66.8853 16.0695 66.412 15.9662 65.9853 15.7595C65.5653 15.5528 65.232 15.2462 64.9853 14.8395C64.7386 14.4262 64.6153 13.9228 64.6153 13.3295V9.01951H66.0153ZM75.208 15.9995L73.668 13.2795H73.008V15.9995H71.608V9.01951H74.228C74.768 9.01951 75.228 9.11618 75.608 9.30951C75.988 9.49618 76.2713 9.75284 76.458 10.0795C76.6513 10.3995 76.748 10.7595 76.748 11.1595C76.748 11.6195 76.6146 12.0362 76.348 12.4095C76.0813 12.7762 75.6846 13.0295 75.158 13.1695L76.828 15.9995H75.208ZM73.008 12.2295H74.178C74.558 12.2295 74.8413 12.1395 75.028 11.9595C75.2146 11.7728 75.308 11.5162 75.308 11.1895C75.308 10.8695 75.2146 10.6228 75.028 10.4495C74.8413 10.2695 74.558 10.1795 74.178 10.1795H73.008V12.2295ZM77.6742 12.4995C77.6742 11.8128 77.8276 11.1995 78.1342 10.6595C78.4476 10.1128 78.8709 9.68951 79.4042 9.38951C79.9442 9.08284 80.5476 8.92951 81.2142 8.92951C81.9942 8.92951 82.6776 9.12951 83.2642 9.52951C83.8509 9.92951 84.2609 10.4828 84.4942 11.1895H82.8842C82.7242 10.8562 82.4976 10.6062 82.2042 10.4395C81.9176 10.2728 81.5842 10.1895 81.2042 10.1895C80.7976 10.1895 80.4342 10.2862 80.1142 10.4795C79.8009 10.6662 79.5542 10.9328 79.3742 11.2795C79.2009 11.6262 79.1142 12.0328 79.1142 12.4995C79.1142 12.9595 79.2009 13.3662 79.3742 13.7195C79.5542 14.0662 79.8009 14.3362 80.1142 14.5295C80.4342 14.7162 80.7976 14.8095 81.2042 14.8095C81.5842 14.8095 81.9176 14.7262 82.2042 14.5595C82.4976 14.3862 82.7242 14.1328 82.8842 13.7995H84.4942C84.2609 14.5128 83.8509 15.0695 83.2642 15.4695C82.6842 15.8628 82.0009 16.0595 81.2142 16.0595C80.5476 16.0595 79.9442 15.9095 79.4042 15.6095C78.8709 15.3028 78.4476 14.8795 78.1342 14.3395C77.8276 13.7995 77.6742 13.1862 77.6742 12.4995ZM87.09 10.1495V11.8995H89.44V13.0095H87.09V14.8595H89.74V15.9995H85.69V9.00951H89.74V10.1495H87.09Z" fill="white"/>
<path d="M63.872 25.1195C63.44 24.2875 62.84 23.6635 62.072 23.2475C61.304 22.8155 60.416 22.5995 59.408 22.5995C58.304 22.5995 57.32 22.8475 56.456 23.3435C55.592 23.8395 54.912 24.5435 54.416 25.4555C53.936 26.3675 53.696 27.4235 53.696 28.6235C53.696 29.8235 53.936 30.8875 54.416 31.8155C54.912 32.7275 55.592 33.4315 56.456 33.9275C57.32 34.4235 58.304 34.6715 59.408 34.6715C60.896 34.6715 62.104 34.2555 63.032 33.4235C63.96 32.5915 64.528 31.4635 64.736 30.0395H58.472V27.8555H67.664V29.9915C67.488 31.2875 67.024 32.4795 66.272 33.5675C65.536 34.6555 64.568 35.5275 63.368 36.1835C62.184 36.8235 60.864 37.1435 59.408 37.1435C57.84 37.1435 56.408 36.7835 55.112 36.0635C53.816 35.3275 52.784 34.3115 52.016 33.0155C51.264 31.7195 50.888 30.2555 50.888 28.6235C50.888 26.9915 51.264 25.5275 52.016 24.2315C52.784 22.9355 53.816 21.9275 55.112 21.2075C56.424 20.4715 57.856 20.1035 59.408 20.1035C61.184 20.1035 62.76 20.5435 64.136 21.4235C65.528 22.2875 66.536 23.5195 67.16 25.1195H63.872ZM71.7545 22.0235C71.2585 22.0235 70.8425 21.8555 70.5065 21.5195C70.1705 21.1835 70.0025 20.7675 70.0025 20.2715C70.0025 19.7755 70.1705 19.3595 70.5065 19.0235C70.8425 18.6875 71.2585 18.5195 71.7545 18.5195C72.2345 18.5195 72.6425 18.6875 72.9785 19.0235C73.3145 19.3595 73.4825 19.7755 73.4825 20.2715C73.4825 20.7675 73.3145 21.1835 72.9785 21.5195C72.6425 21.8555 72.2345 22.0235 71.7545 22.0235ZM73.0985 23.7755V36.9995H70.3625V23.7755H73.0985ZM79.8826 26.0075V33.3275C79.8826 33.8235 79.9946 34.1835 80.2186 34.4075C80.4586 34.6155 80.8586 34.7195 81.4186 34.7195H83.0986V36.9995H80.9386C79.7066 36.9995 78.7626 36.7115 78.1066 36.1355C77.4506 35.5595 77.1226 34.6235 77.1226 33.3275V26.0075H75.5626V23.7755H77.1226V20.4875H79.8826V23.7755H83.0986V26.0075H79.8826ZM88.3563 34.7915H93.9963V36.9995H85.6203V20.3195H88.3563V34.7915ZM95.3724 30.3275C95.3724 28.9995 95.6444 27.8235 96.1884 26.7995C96.7484 25.7755 97.5004 24.9835 98.4444 24.4235C99.4044 23.8475 100.46 23.5595 101.612 23.5595C102.652 23.5595 103.556 23.7675 104.324 24.1835C105.108 24.5835 105.732 25.0875 106.196 25.6955V23.7755H108.956V36.9995H106.196V35.0315C105.732 35.6555 105.1 36.1755 104.3 36.5915C103.5 37.0075 102.588 37.2155 101.564 37.2155C100.428 37.2155 99.3884 36.9275 98.4444 36.3515C97.5004 35.7595 96.7484 34.9435 96.1884 33.9035C95.6444 32.8475 95.3724 31.6555 95.3724 30.3275ZM106.196 30.3755C106.196 29.4635 106.004 28.6715 105.62 27.9995C105.252 27.3275 104.764 26.8155 104.156 26.4635C103.548 26.1115 102.892 25.9355 102.188 25.9355C101.484 25.9355 100.828 26.1115 100.22 26.4635C99.6124 26.7995 99.1164 27.3035 98.7324 27.9755C98.3644 28.6315 98.1804 29.4155 98.1804 30.3275C98.1804 31.2395 98.3644 32.0395 98.7324 32.7275C99.1164 33.4155 99.6124 33.9435 100.22 34.3115C100.844 34.6635 101.5 34.8395 102.188 34.8395C102.892 34.8395 103.548 34.6635 104.156 34.3115C104.764 33.9595 105.252 33.4475 105.62 32.7755C106.004 32.0875 106.196 31.2875 106.196 30.3755ZM115.286 25.7435C115.75 25.1035 116.382 24.5835 117.182 24.1835C117.998 23.7675 118.902 23.5595 119.894 23.5595C121.062 23.5595 122.118 23.8395 123.062 24.3995C124.006 24.9595 124.75 25.7595 125.294 26.7995C125.838 27.8235 126.11 28.9995 126.11 30.3275C126.11 31.6555 125.838 32.8475 125.294 33.9035C124.75 34.9435 123.998 35.7595 123.038 36.3515C122.094 36.9275 121.046 37.2155 119.894 37.2155C118.87 37.2155 117.958 37.0155 117.158 36.6155C116.374 36.2155 115.75 35.7035 115.286 35.0795V36.9995H112.55V19.2395H115.286V25.7435ZM123.326 30.3275C123.326 29.4155 123.134 28.6315 122.75 27.9755C122.382 27.3035 121.886 26.7995 121.262 26.4635C120.654 26.1115 119.998 25.9355 119.294 25.9355C118.606 25.9355 117.95 26.1115 117.326 26.4635C116.718 26.8155 116.222 27.3275 115.838 27.9995C115.47 28.6715 115.286 29.4635 115.286 30.3755C115.286 31.2875 115.47 32.0875 115.838 32.7755C116.222 33.4475 116.718 33.9595 117.326 34.3115C117.95 34.6635 118.606 34.8395 119.294 34.8395C119.998 34.8395 120.654 34.6635 121.262 34.3115C121.886 33.9435 122.382 33.4155 122.75 32.7275C123.134 32.0395 123.326 31.2395 123.326 30.3275Z" fill="white"/>
<rect x="50" y="40.9995" width="108" height="0.001" fill="white"/>
</svg>
